<svg width="733" height="272" viewBox="0 0 733 272" fill="none" xmlns="http://www.w3.org/2000/svg">
<path d="M114.243 177.281L249.009 156.003C249.769 155.883 250.114 154.987 249.633 154.388L177.62 64.8581C177.182 64.314 177.423 63.5001 178.086 63.2816L216.577 50.6022C217.467 50.309 217.501 49.0626 216.628 48.7212L188.388 37.6707C187.422 37.2927 187.6 35.875 188.629 35.7471L261.215 26.7333H157.103C155.869 26.7333 155.656 24.9991 156.876 24.8178C195.032 19.151 310.816 2.73761 384.715 0.733269C463.765 -1.41077 582.847 6.54074 585.664 6.72985C585.752 6.73577 585.757 6.74787 585.841 6.77667L595.655 10.1608C596.681 10.5146 596.487 12.02 595.405 12.1032L569.635 14.0856C568.454 14.1764 568.384 15.8825 569.553 16.07L613.674 23.1427C614.894 23.3384 614.744 25.1398 613.508 25.1301L571.351 24.8008C570.163 24.7915 569.952 26.492 571.107 26.7724L613.665 37.1138C614.558 37.3307 614.711 38.5356 613.9 38.9679L609.906 41.0982C609.313 41.4142 609.194 42.2128 609.669 42.6876L612.425 45.4432C612.846 45.8647 612.808 46.5589 612.342 46.9312L603.863 53.7145C603.487 54.0153 603.379 54.5412 603.606 54.966L606.738 60.8397C607 61.3314 606.81 61.9425 606.315 62.1985L593.064 69.0525C592.84 69.1687 592.667 69.3657 592.582 69.6038L554.116 177.111C553.907 177.697 554.277 178.329 554.889 178.434L607.654 187.442C608.808 187.639 608.742 189.319 607.576 189.424L527.243 196.688C526.117 196.79 525.999 198.39 527.098 198.656L590.612 214.016C591.742 214.289 591.574 215.947 590.411 215.987L538.356 217.794C537.124 217.837 537.045 219.635 538.268 219.786L574.215 224.233L610.566 231.326C611.628 231.533 611.651 233.043 610.596 233.283L604.313 234.711C604.248 234.726 604.181 234.734 604.114 234.736L559.715 235.733L507.556 233.663C506.341 233.615 506.109 235.368 507.295 235.638L542.739 243.693C543.906 243.959 543.72 245.674 542.524 245.664C524.468 245.524 484.607 245.189 467.115 244.836C499.277 245.838 545.33 252.514 572.307 258.395C573.459 258.646 573.323 260.174 572.144 260.158C520.805 259.486 290.69 254.905 186.558 271.101C186.059 271.179 185.61 270.869 185.474 270.384C185.1 269.05 184.687 267.511 184.439 266.581C184.31 266.096 183.843 265.781 183.345 265.844L158.758 268.973C157.93 269.079 157.345 268.183 157.775 267.467L158.806 265.748C159.206 265.081 158.726 264.233 157.949 264.233H147.19C146.098 264.233 145.796 262.733 146.804 262.311L173.218 251.245C174.273 250.803 173.879 249.223 172.74 249.327L134.716 252.816C133.514 252.926 133.182 251.207 134.338 250.862L177.081 238.108C178.238 237.763 177.906 236.043 176.703 236.154L144.111 239.151C143.601 239.198 143.139 238.853 143.038 238.351L142.394 235.128C142.292 234.621 141.821 234.275 141.307 234.33L125.712 235.989C124.561 236.111 124.156 234.507 125.228 234.069L140.575 227.791C140.668 227.753 140.766 227.729 140.865 227.72L157.005 226.296C157.43 226.258 157.784 225.956 157.888 225.542L158.575 222.794C158.661 222.447 158.926 222.173 159.27 222.075L163.243 220.94C164.12 220.689 164.231 219.491 163.415 219.084L161.967 218.36C161.802 218.277 161.617 218.242 161.433 218.258L128.122 221.154C127.608 221.199 127.144 220.845 127.052 220.337L126.372 216.6C126.282 216.105 126.575 215.62 127.055 215.468L142.475 210.599C143.379 210.313 143.415 209.048 142.53 208.71L137.27 206.707C136.399 206.375 136.415 205.137 137.295 204.829L168.548 193.87C169.577 193.509 169.367 191.995 168.279 191.928L127.736 189.42C126.774 189.361 126.445 188.109 127.253 187.584L132.568 184.129C133.331 183.633 133.088 182.457 132.19 182.305L114.232 179.255C113.115 179.065 113.125 177.458 114.243 177.281Z" fill="white"/>
<path d="M88.5758 224.509L85.5519 218.083C85.3544 217.663 84.894 217.434 84.4401 217.531L45.1299 225.846C43.9282 226.1 44.1544 227.878 45.3815 227.823L87.7156 225.934C88.4286 225.902 88.8797 225.155 88.5758 224.509Z" fill="white"/>
<path d="M618.454 56.1705L620.019 48.3454C620.127 47.8045 620.653 47.4534 621.194 47.5605L660.711 55.3857C661.897 55.6205 661.726 57.3666 660.517 57.3666H619.435C618.804 57.3666 618.33 56.7893 618.454 56.1705Z" fill="white"/>
<g clip-path="url(#clip0_4_25)">
<path d="M132.5 61.8581C132.5 61.8581 171.185 52.5877 207.5 46.8581C317.432 31.8247 478.568 19.8812 505.516 28.4469C507.092 28.9481 506.674 30.4238 505.022 30.5128C473.413 32.2151 373.5 46.3581 373.5 46.3581C373.5 46.3581 465.814 42.0594 524.5 47.8581C526.601 48.0657 526.666 51.1434 524.582 51.4757C517.92 52.5377 510.072 53.863 503.911 55.1216C501.896 55.5333 501.932 57.825 503.974 58.0731C544.707 63.0215 687.206 63.8879 725.85 75.3484C727.791 75.9241 727.377 78.1033 725.353 78.1515C680.783 79.2127 614.505 81.8708 603.942 82.2994C603.055 82.3353 602.352 82.9492 602.137 83.81L602.035 84.2163C601.749 85.3634 602.514 86.5076 603.684 86.68L647.131 93.0826C648.164 93.235 648.881 94.1942 648.733 95.2286C648.599 96.1636 647.798 96.8581 646.854 96.8581H641.263C640.149 96.8581 639.53 98.1461 640.226 99.0156C640.404 99.238 640.649 99.3973 640.924 99.47L672.752 107.869C674.323 108.284 674.771 110.299 673.522 111.339L671.012 113.431C670.68 113.708 670.266 113.87 669.834 113.892L652.324 114.79C651.522 114.831 650.822 115.349 650.547 116.104L649.479 119.042C649.191 119.832 648.44 120.358 647.599 120.358H629.969C628.7 120.358 627.943 121.773 628.647 122.829C628.874 123.169 629.222 123.408 629.621 123.498L644.095 126.755C645.163 126.995 645.124 128.529 644.046 128.715L626.219 131.801C624.747 132.056 624.064 133.776 624.96 134.972L626.14 136.545C627.204 137.964 626.034 140.04 624.265 139.928C616.649 139.447 601.963 139.441 596.299 145.824C595.771 146.418 595.788 147.289 596.18 147.981C598.592 152.245 597.893 154.65 595.349 156.039C593.819 156.874 593.415 158.815 595.038 159.45C599.477 161.186 604.786 162.508 605.434 167.341C605.519 167.974 605.211 168.581 604.668 168.917C591.771 176.897 551.885 173.249 535.059 176.696C533.402 177.036 533.369 178.782 535.015 179.17C546.027 181.771 571.802 183.765 575.56 187.604C575.958 188.011 575.765 188.587 575.214 188.728C569.881 190.098 540.857 188.572 539 191.358C536.333 195.358 611.459 212.737 603.5 211.358C452.159 185.146 182.918 223.998 166.45 220.973C166.049 220.899 165.781 220.648 165.851 220.246C166.98 213.771 247.373 199.742 279.366 193.469C281.527 193.045 281.385 190.758 279.183 190.732C244.64 190.318 161.47 199.528 158.577 199.85C158.475 199.861 158.448 199.856 158.345 199.851L148.533 199.425C147.629 199.385 146.864 198.744 146.667 197.861L146.365 196.502C146.154 195.552 145.29 194.892 144.318 194.938L126.748 195.775C125.796 195.82 125 195.061 125 194.108C125 193.367 125.488 192.715 126.199 192.507L150.609 185.352C151.751 185.017 151.846 183.435 150.752 182.966C150.586 182.895 150.407 182.86 150.226 182.864L103.694 183.785C102.105 183.816 101.116 182.073 101.958 180.725L102.071 180.544C102.346 180.104 102.781 179.788 103.285 179.663L181.725 160.161C183.905 159.619 183.672 156.448 181.436 156.23L152.418 153.399C152.142 153.372 151.875 153.288 151.634 153.153L146.567 150.31C146.199 150.103 145.774 150.018 145.354 150.068L56.6852 160.541C55.5325 160.677 54.6901 159.478 55.2092 158.44C55.3943 158.07 55.7279 157.795 56.1269 157.686L109.731 142.932C109.907 142.884 110.068 142.79 110.197 142.661C110.863 141.996 110.391 140.858 109.451 140.858H102.913C102.133 140.858 101.5 140.226 101.5 139.445C101.5 138.804 101.931 138.244 102.551 138.08L158.762 123.186C159.369 123.025 159.638 122.315 159.289 121.792C159.11 121.523 158.802 121.369 158.479 121.386L131.701 122.795C130.962 122.834 130.262 122.461 129.881 121.827L129.643 121.429C129.249 120.774 128.517 120.4 127.756 120.465L101.353 122.741C100.536 122.812 99.7592 122.377 99.3926 121.643L98.2607 119.379C97.8222 118.502 98.0842 117.437 98.8795 116.863L122.036 100.16C123.69 98.9673 122.709 96.3556 120.679 96.5464L11 106.858C59.6965 95.8676 133.16 80.291 151.982 76.3121C153.558 75.9789 153.833 73.8762 152.424 73.0938C152.147 72.9396 151.832 72.8642 151.515 72.8758L111.477 74.3406C111.164 74.3521 110.851 74.2895 110.566 74.1579L109.05 73.458C107.409 72.7008 107.534 70.3286 109.245 69.7481L132.5 61.8581Z" fill="url(#paint0_linear_4_25)"/>
<path d="M180.91 38.6857C180.866 36.4043 180.945 32.7516 181.704 29.8477C181.867 29.2202 182.349 28.7541 182.973 28.5769C225.85 16.4033 314 19.3581 314 19.3581L183.148 40.5109C181.992 40.6977 180.932 39.8564 180.91 38.6857Z" fill="url(#paint1_linear_4_25)"/>
<path d="M71.1433 189.218L69.8592 181.513C69.6662 180.355 68.5216 179.612 67.385 179.906L0 197.358L69.3377 191.54C70.5024 191.442 71.3354 190.371 71.1433 189.218Z" fill="url(#paint2_linear_4_25)"/>
<path d="M189.325 252.121C189.844 248.067 190.984 240.339 192.726 234.711C192.895 234.166 193.226 233.75 193.773 233.587C208.851 229.083 339.5 222.358 339.5 222.358L191.695 254.276C190.366 254.563 189.152 253.47 189.325 252.121Z" fill="url(#paint3_linear_4_25)"/>
<path d="M623.133 53.2286C625.184 50.9001 626.452 46.5578 627.062 43.9655C627.329 42.8333 626.519 41.7697 625.361 41.6685C613.097 40.597 551.578 35.4326 531.721 37.8523C529.946 38.0686 529.896 39.8417 531.632 40.2715C547.631 44.2335 591.409 49.7488 621.624 53.7423C622.188 53.8168 622.757 53.6553 623.133 53.2286Z" fill="url(#paint4_linear_4_25)"/>
<path d="M131 42.3581L95.0965 52.6865C94.708 52.7983 94.2947 52.7897 93.9111 52.6618L92.0898 52.0547C90.9697 51.6813 90.4152 50.424 90.8947 49.3451L91.5362 47.9017C91.8236 47.255 92.4315 46.8083 93.1345 46.7272L131 42.3581Z" fill="url(#paint5_linear_4_25)"/>
<ellipse cx="341" cy="19.9705" rx="8.57921" ry="3.1512" transform="rotate(-5.58041 341 19.9705)" fill="#D97706"/>
<ellipse cx="75.068" cy="131.276" rx="10.5" ry="4" transform="rotate(-15.3169 75.068 131.276)" fill="#F5B12B"/>
<ellipse cx="367.444" cy="227.051" rx="8" ry="3.5" transform="rotate(8.8758 367.444 227.051)" fill="#D97706"/>
<ellipse cx="639.103" cy="175.155" rx="12.5" ry="5" transform="rotate(8.52243 639.103 175.155)" fill="#D97706"/>
<ellipse cx="138.5" cy="223.858" rx="5.5" ry="2.5" fill="#F5B12B"/>
</g>
<path d="M201.325 150.855V111.008C201.325 110.725 201.312 110.506 201.287 110.352C201.261 110.198 201.171 110.043 201.017 109.889C200.888 109.735 200.682 109.658 200.399 109.658C199.191 109.658 197.429 109.658 195.115 109.658C192.826 109.632 191.18 109.619 190.177 109.619C189.946 110.133 189.56 111.419 189.02 113.477C188.506 115.508 187.979 117.295 187.438 118.838C186.898 120.381 186.41 121.153 185.973 121.153C184.995 121.153 184.121 121.024 183.35 120.767C182.604 120.51 182.025 120.201 181.614 119.841C181.228 119.456 180.932 119.108 180.727 118.8C180.547 118.465 180.457 118.208 180.457 118.028C180.457 117.154 180.932 114.505 181.884 110.082C182.835 105.659 183.491 103.267 183.851 102.907C183.928 102.907 184.005 102.92 184.083 102.946C184.16 102.946 184.237 102.946 184.314 102.946C191.952 103.589 199.114 103.91 205.8 103.91C212.46 103.91 219.609 103.589 227.247 102.946C227.324 102.946 227.401 102.946 227.479 102.946C227.556 102.92 227.633 102.907 227.71 102.907C228.07 103.267 228.726 105.659 229.677 110.082C230.629 114.505 231.104 117.154 231.104 118.028C231.104 118.208 231.002 118.465 230.796 118.8C230.616 119.108 230.32 119.456 229.909 119.841C229.523 120.201 228.944 120.51 228.173 120.767C227.427 121.024 226.566 121.153 225.588 121.153C225.151 121.153 224.663 120.381 224.123 118.838C223.583 117.295 223.042 115.508 222.502 113.477C221.988 111.419 221.615 110.133 221.384 109.619C220.381 109.619 218.722 109.632 216.408 109.658C214.119 109.658 212.37 109.658 211.162 109.658C210.75 109.658 210.493 109.773 210.39 110.005C210.287 110.236 210.236 110.571 210.236 111.008V150.778C210.236 151.164 210.249 151.472 210.274 151.704C210.326 151.909 210.416 152.154 210.544 152.437C210.699 152.719 210.956 152.938 211.316 153.092C211.676 153.221 212.139 153.285 212.705 153.285C213.888 153.285 214.903 153.439 215.752 153.748C216.601 154.057 217.025 154.52 217.025 155.137C217.025 158.557 216.601 160.653 215.752 161.424C211.895 161.141 208.59 161 205.838 161C203.138 161 199.808 161.141 195.848 161.424C194.999 160.653 194.575 158.557 194.575 155.137C194.575 154.52 194.999 154.057 195.848 153.748C196.696 153.439 197.712 153.285 198.895 153.285C199.898 153.285 200.554 153.079 200.862 152.668C201.171 152.231 201.325 151.626 201.325 150.855ZM255.368 103.949C258.582 103.949 260.768 103.846 261.925 103.64V103.794C262.08 104.875 262.542 106.713 263.314 109.311C264.111 111.908 264.638 113.502 264.896 114.094L279.168 151.279C279.477 152.051 279.862 152.655 280.325 153.092C280.788 153.504 281.521 153.709 282.524 153.709C283.424 153.709 284.247 153.864 284.993 154.172C285.738 154.481 286.201 154.944 286.381 155.561C286.278 157.207 286.227 158.531 286.227 159.534C286.227 160.511 286.008 161.141 285.571 161.424C281.714 161.141 278.474 161 275.851 161C270.604 161 267.017 161.141 265.088 161.424C264.651 159.933 264.433 157.875 264.433 155.252C264.433 154.635 264.883 154.237 265.783 154.057C266.708 153.877 267.621 153.722 268.521 153.594C269.447 153.465 269.91 153.144 269.91 152.629C269.91 152.269 269.794 151.794 269.563 151.202L265.898 140.826H245.647L242.137 151.202C241.905 151.896 241.79 152.372 241.79 152.629C241.79 153.144 242.252 153.465 243.178 153.594C244.104 153.722 245.03 153.877 245.956 154.057C246.881 154.237 247.344 154.635 247.344 155.252C247.036 158.544 246.688 160.601 246.303 161.424C242.24 161.141 238.858 161 236.158 161C234.589 161 231.503 161.141 226.9 161.424C226.463 161.141 226.244 160.511 226.244 159.534C226.244 158.531 226.321 157.207 226.476 155.561C226.656 154.944 227.106 154.481 227.826 154.172C228.546 153.864 229.356 153.709 230.256 153.709C231.259 153.709 231.992 153.504 232.455 153.092C232.917 152.655 233.303 152.051 233.612 151.279L247.884 113.322C248.09 112.757 248.193 112.332 248.193 112.049C248.193 111.535 247.923 111.201 247.383 111.046C246.843 110.866 246.251 110.802 245.608 110.854C244.991 110.905 244.413 110.828 243.873 110.622C243.333 110.391 243.062 109.992 243.062 109.426C243.062 109.375 243.088 109.246 243.14 109.041C243.5 106.16 243.95 104.36 244.49 103.64C247.653 103.846 251.279 103.949 255.368 103.949ZM255.869 112.551C253.169 119.134 250.43 126.605 247.653 134.962H263.854C262.62 131.234 261.334 127.505 259.997 123.776C258.659 120.047 257.631 117.244 256.911 115.367L255.869 112.551ZM290.625 161.424C289.93 161.013 289.416 160.19 289.082 158.956C288.747 157.721 288.58 156.448 288.58 155.137C288.58 154.52 289.004 154.057 289.853 153.748C290.702 153.439 291.717 153.285 292.9 153.285C293.903 153.285 294.559 153.079 294.868 152.668C295.176 152.231 295.331 151.626 295.331 150.855V113.592C295.331 112.821 295.176 112.229 294.868 111.818C294.559 111.381 293.903 111.162 292.9 111.162C290.02 111.162 288.58 110.493 288.58 109.156C288.58 107.896 288.747 106.662 289.082 105.453C289.416 104.219 289.93 103.409 290.625 103.023C294.019 103.357 298.751 103.524 304.82 103.524C307.057 103.524 309.86 103.422 313.229 103.216C316.598 103.01 318.822 102.907 319.902 102.907C322.68 102.907 325.2 103.37 327.463 104.296C329.726 105.196 331.552 106.405 332.94 107.922C334.329 109.439 335.396 111.149 336.142 113.052C336.888 114.93 337.261 116.884 337.261 118.916C337.261 120.999 336.605 123.043 335.293 125.049C334.008 127.055 332.195 128.521 329.854 129.446C332.426 130.243 334.599 131.478 336.374 133.149C338.148 134.795 339.408 136.57 340.154 138.473C340.9 140.35 341.272 142.317 341.272 144.375C341.272 146.535 340.81 148.618 339.884 150.624C338.984 152.629 337.685 154.442 335.988 156.062C334.291 157.683 332.079 158.981 329.353 159.958C326.653 160.936 323.644 161.424 320.327 161.424C319.709 161.424 317.356 161.347 313.268 161.193C309.179 161.064 305.643 161 302.66 161C299.548 161 295.536 161.141 290.625 161.424ZM319.131 133.458H304.241V152.707C304.241 153.709 304.421 154.211 304.781 154.211H321.06C324.686 154.211 327.54 153.208 329.623 151.202C331.706 149.196 332.748 146.83 332.748 144.104C332.748 141.224 331.565 138.73 329.199 136.621C326.833 134.512 323.477 133.458 319.131 133.458ZM304.241 127.325H319.131C322.088 127.325 324.428 126.515 326.151 124.895C327.874 123.274 328.736 121.371 328.736 119.186C328.736 116.717 327.99 114.569 326.499 112.744C325.007 110.918 322.937 110.005 320.288 110.005H304.241V127.325ZM347.714 103.023C348.949 103.357 352.009 103.524 356.895 103.524C361.19 103.524 363.993 103.357 365.304 103.023C365.999 103.409 366.513 104.142 366.847 105.222C367.181 106.276 367.349 107.395 367.349 108.578C367.349 109.195 367.001 109.658 366.307 109.966C365.613 110.275 364.777 110.429 363.8 110.429C363.234 110.429 362.771 110.506 362.411 110.661C362.051 110.789 361.794 110.995 361.64 111.278C361.511 111.561 361.421 111.818 361.37 112.049C361.344 112.255 361.331 112.551 361.331 112.937V152.745C361.331 153.645 361.511 154.095 361.871 154.095C364.186 154.095 367.323 154.108 371.283 154.134C375.269 154.134 378.111 154.134 379.808 154.134C380.142 153.542 380.76 152.012 381.66 149.543C382.56 147.075 383.46 144.915 384.36 143.063C385.26 141.211 386.044 140.286 386.713 140.286C387.69 140.286 388.552 140.414 389.297 140.671C390.069 140.929 390.647 141.25 391.033 141.636C391.445 141.996 391.74 142.343 391.92 142.677C392.126 142.986 392.229 143.23 392.229 143.41C392.229 144.465 391.136 147.64 388.95 152.938C386.79 158.21 385.337 161.039 384.591 161.424C377.571 161.141 371.129 161 365.266 161C359.788 161 353.938 161.141 347.714 161.424C347.02 161.013 346.506 160.19 346.171 158.956C345.837 157.721 345.67 156.448 345.67 155.137C345.67 154.52 346.094 154.057 346.943 153.748C347.792 153.439 348.807 153.285 349.99 153.285C350.993 153.285 351.649 153.079 351.958 152.668C352.266 152.231 352.42 151.626 352.42 150.855V113.592C352.42 112.821 352.266 112.229 351.958 111.818C351.649 111.381 350.993 111.162 349.99 111.162C347.11 111.162 345.67 110.493 345.67 109.156C345.67 107.896 345.837 106.662 346.171 105.453C346.506 104.219 347.02 103.409 347.714 103.023ZM398.285 103.023C408.572 103.357 415.489 103.524 419.038 103.524C421.481 103.524 424.014 103.499 426.637 103.447C429.26 103.37 431.729 103.28 434.043 103.177C436.358 103.074 437.759 103.023 438.248 103.023C438.685 103.409 439.482 106.032 440.64 110.892C441.823 115.752 442.414 118.658 442.414 119.61C442.414 119.79 442.311 120.047 442.105 120.381C441.925 120.69 441.63 121.037 441.218 121.423C440.833 121.783 440.254 122.091 439.482 122.349C438.737 122.606 437.875 122.734 436.898 122.734C436.512 122.734 436.075 121.911 435.586 120.266C435.098 118.62 434.609 116.717 434.121 114.557C433.632 112.371 433.285 110.995 433.079 110.429C431.202 110.429 428.064 110.442 423.667 110.468C419.295 110.468 415.811 110.468 413.213 110.468C412.828 110.468 412.532 110.609 412.326 110.892C412.12 111.175 411.992 111.471 411.94 111.779C411.915 112.062 411.902 112.448 411.902 112.937V127.479C413.393 126.965 415.232 126.502 417.418 126.09C419.63 125.679 421.648 125.473 423.474 125.473C425.017 125.473 426.251 125.872 427.177 126.669C428.103 127.44 428.566 128.688 428.566 130.411C428.566 131.851 428.064 133.059 427.062 134.037C426.084 134.988 424.927 135.464 423.59 135.464C421.738 133.124 419.09 131.954 415.644 131.954C414.641 131.954 413.393 132.044 411.902 132.224V151.588C411.902 152.102 411.915 152.514 411.94 152.822C411.992 153.105 412.12 153.388 412.326 153.671C412.532 153.954 412.828 154.095 413.213 154.095C416.016 154.095 419.784 154.108 424.516 154.134C429.247 154.134 432.616 154.134 434.622 154.134C434.879 153.517 435.329 151.986 435.972 149.543C436.615 147.075 437.258 144.915 437.901 143.063C438.544 141.211 439.11 140.286 439.598 140.286C440.575 140.286 441.437 140.414 442.183 140.671C442.954 140.929 443.533 141.25 443.918 141.636C444.33 141.996 444.626 142.343 444.806 142.677C445.011 142.986 445.114 143.23 445.114 143.41C445.114 144.465 444.407 147.64 442.993 152.938C441.604 158.21 440.665 161.039 440.177 161.424C435.419 161.141 428.373 161 419.038 161C410.886 161 403.968 161.141 398.285 161.424C397.591 161.013 397.076 160.19 396.742 158.956C396.408 157.721 396.241 156.448 396.241 155.137C396.241 154.52 396.665 154.057 397.514 153.748C398.362 153.439 399.378 153.285 400.561 153.285C401.564 153.285 402.22 153.079 402.528 152.668C402.837 152.231 402.991 151.626 402.991 150.855V113.592C402.991 112.821 402.837 112.229 402.528 111.818C402.22 111.381 401.564 111.162 400.561 111.162C397.681 111.162 396.241 110.493 396.241 109.156C396.241 107.896 396.408 106.662 396.742 105.453C397.076 104.219 397.591 103.409 398.285 103.023ZM449.705 103.023C450.939 103.357 453.999 103.524 458.885 103.524C463.18 103.524 465.983 103.357 467.294 103.023C467.989 103.409 468.503 104.142 468.837 105.222C469.172 106.276 469.339 107.395 469.339 108.578C469.339 109.195 468.992 109.658 468.297 109.966C467.603 110.275 466.767 110.429 465.79 110.429C465.224 110.429 464.761 110.506 464.401 110.661C464.041 110.789 463.784 110.995 463.63 111.278C463.501 111.561 463.411 111.818 463.36 112.049C463.334 112.255 463.321 112.551 463.321 112.937V152.745C463.321 153.645 463.501 154.095 463.861 154.095C466.176 154.095 469.313 154.108 473.273 154.134C477.259 154.134 480.101 154.134 481.798 154.134C482.133 153.542 482.75 152.012 483.65 149.543C484.55 147.075 485.45 144.915 486.35 143.063C487.25 141.211 488.035 140.286 488.703 140.286C489.68 140.286 490.542 140.414 491.288 140.671C492.059 140.929 492.638 141.25 493.023 141.636C493.435 141.996 493.731 142.343 493.911 142.677C494.116 142.986 494.219 143.23 494.219 143.41C494.219 144.465 493.126 147.64 490.94 152.938C488.78 158.21 487.327 161.039 486.582 161.424C479.561 161.141 473.119 161 467.256 161C461.778 161 455.928 161.141 449.705 161.424C449.01 161.013 448.496 160.19 448.162 158.956C447.827 157.721 447.66 156.448 447.66 155.137C447.66 154.52 448.084 154.057 448.933 153.748C449.782 153.439 450.798 153.285 451.98 153.285C452.983 153.285 453.639 153.079 453.948 152.668C454.256 152.231 454.411 151.626 454.411 150.855V113.592C454.411 112.821 454.256 112.229 453.948 111.818C453.639 111.381 452.983 111.162 451.98 111.162C449.1 111.162 447.66 110.493 447.66 109.156C447.66 107.896 447.827 106.662 448.162 105.453C448.496 104.219 449.01 103.409 449.705 103.023ZM528.82 138.164L528.782 150.778C528.782 151.164 528.795 151.472 528.82 151.704C528.872 151.909 528.962 152.154 529.09 152.437C529.245 152.719 529.502 152.938 529.862 153.092C530.222 153.221 530.685 153.285 531.25 153.285C532.433 153.285 533.449 153.439 534.298 153.748C535.146 154.057 535.571 154.52 535.571 155.137C535.571 158.557 535.146 160.653 534.298 161.424C530.44 161.141 527.136 161 524.384 161C521.761 161 518.56 161.141 514.779 161.424C514.214 161.013 513.789 160.19 513.506 158.956C513.249 157.721 513.121 156.448 513.121 155.137C513.121 154.52 513.545 154.057 514.394 153.748C515.242 153.439 516.258 153.285 517.441 153.285C518.444 153.285 519.1 153.079 519.408 152.668C519.717 152.231 519.871 151.626 519.871 150.855V138.164L505.329 113.399C504.351 111.779 503.053 110.969 501.433 110.969C500.353 110.969 499.35 110.815 498.424 110.506C497.498 110.198 496.855 109.735 496.495 109.118C496.495 108.578 496.469 107.69 496.418 106.456C496.367 105.222 496.341 104.36 496.341 103.872C496.341 103.383 496.457 103.074 496.688 102.946C499.928 103.152 503.554 103.254 507.566 103.254C511.526 103.254 514.805 103.152 517.402 102.946C517.479 103.177 517.801 105.337 518.367 109.426C518.367 109.452 518.367 109.491 518.367 109.542C518.392 109.593 518.405 109.632 518.405 109.658C518.405 110.146 517.981 110.481 517.132 110.661C516.309 110.815 515.474 110.956 514.625 111.085C513.776 111.188 513.352 111.445 513.352 111.856C513.352 112.114 513.583 112.654 514.046 113.477L523.458 129.871C524.179 131.054 524.603 131.684 524.731 131.761C524.911 131.709 525.323 131.079 525.966 129.871C530.286 122.259 533.436 116.794 535.417 113.477C535.879 112.705 536.111 112.165 536.111 111.856C536.111 111.445 535.687 111.188 534.838 111.085C533.989 110.956 533.141 110.815 532.292 110.661C531.469 110.481 531.058 110.146 531.058 109.658C531.058 109.632 531.058 109.593 531.058 109.542C531.083 109.491 531.096 109.452 531.096 109.426C531.662 105.337 531.983 103.177 532.061 102.946C534.478 103.152 537.5 103.254 541.125 103.254C545.137 103.254 548.763 103.152 552.003 102.946C552.235 103.074 552.351 103.383 552.351 103.872C552.351 104.129 552.312 104.412 552.235 104.72V105.299C552.235 105.556 552.235 105.967 552.235 106.533C552.261 107.099 552.273 107.523 552.273 107.806C552.273 108.115 552.248 108.552 552.196 109.118C551.836 109.735 551.193 110.198 550.268 110.506C549.342 110.815 548.339 110.969 547.259 110.969C545.587 110.969 544.289 111.779 543.363 113.399L528.82 138.164Z" fill="white"/>
<defs>
<linearGradient id="paint0_linear_4_25" x1="33" y1="96.8581" x2="638" y2="160.358" gradientUnits="userSpaceOnUse">
<stop stop-color="#F5B12B"/>
<stop offset="1" stop-color="#D97706"/>
</linearGradient>
<linearGradient id="paint1_linear_4_25" x1="33" y1="96.8581" x2="638" y2="160.358" gradientUnits="userSpaceOnUse">
<stop stop-color="#F5B12B"/>
<stop offset="1" stop-color="#D97706"/>
</linearGradient>
<linearGradient id="paint2_linear_4_25" x1="33" y1="96.8581" x2="638" y2="160.358" gradientUnits="userSpaceOnUse">
<stop stop-color="#F5B12B"/>
<stop offset="1" stop-color="#D97706"/>
</linearGradient>
<linearGradient id="paint3_linear_4_25" x1="33" y1="96.8581" x2="638" y2="160.358" gradientUnits="userSpaceOnUse">
<stop stop-color="#F5B12B"/>
<stop offset="1" stop-color="#D97706"/>
</linearGradient>
<linearGradient id="paint4_linear_4_25" x1="33" y1="96.8581" x2="638" y2="160.358" gradientUnits="userSpaceOnUse">
<stop stop-color="#F5B12B"/>
<stop offset="1" stop-color="#D97706"/>
</linearGradient>
<linearGradient id="paint5_linear_4_25" x1="33" y1="96.8581" x2="638" y2="160.358" gradientUnits="userSpaceOnUse">
<stop stop-color="#F5B12B"/>
<stop offset="1" stop-color="#D97706"/>
</linearGradient>
<clipPath id="clip0_4_25">
<rect width="733" height="243" fill="white" transform="translate(0 16)"/>
</clipPath>
</defs>
</svg>
