<svg width="615" height="249" viewBox="0 0 615 249" fill="none" xmlns="http://www.w3.org/2000/svg">
<path d="M56.7433 164.406L191.509 143.127C192.269 143.007 192.614 142.112 192.133 141.513L120.12 51.9829C119.682 51.4388 119.923 50.6249 120.586 50.4064L156.743 38.4956C157.791 38.1506 157.591 36.613 156.49 36.5476L124.31 34.6355C123.125 34.5651 123.028 32.8551 124.198 32.652L188.141 21.5512C189.358 21.34 189.186 19.5427 187.951 19.5661L105.532 21.1286C104.325 21.1514 104.196 19.4388 105.378 19.1911C328.191 -27.5279 490.835 24.5266 517.991 34.1507C518.991 34.5053 518.719 35.8772 517.66 35.9586L491.42 37.9771C490.239 38.068 490.169 39.774 491.339 39.9615L535.459 47.0343C536.68 47.2299 536.529 49.0313 535.293 49.0216L493.136 48.6923C491.948 48.683 491.738 50.3835 492.892 50.664L535.451 61.0053C536.343 61.2223 536.496 62.4271 535.685 62.8594L531.691 64.9897C531.098 65.3057 530.979 66.1043 531.454 66.5791L534.21 69.3348C534.631 69.7562 534.593 70.4504 534.128 70.8227L525.648 77.6061C525.272 77.9068 525.164 78.4327 525.391 78.8575L528.591 84.8578C528.826 85.2977 528.7 85.8431 528.297 86.1366L513.508 96.9109C513.319 97.0491 513.184 97.2496 513.127 97.4773L496.475 164.312C496.335 164.877 496.704 165.442 497.277 165.539L550.154 174.567C551.308 174.764 551.241 176.443 550.075 176.549L469.743 183.813C468.617 183.915 468.499 185.515 469.598 185.781L533.111 201.14C534.242 201.414 534.074 203.071 532.911 203.112L480.855 204.919C479.624 204.962 479.545 206.76 480.767 206.911L510.81 210.628C511.93 210.766 511.999 212.363 510.896 212.598L492 216.625L439.215 220.358C439.215 220.358 467.482 224.638 492.099 230.243C493.249 230.505 493.106 232.114 491.927 232.111C440.954 232.011 213.34 231.775 107.497 247.438C106.431 247.596 105.987 246.167 106.887 245.577L118.913 237.694C119.744 237.15 119.358 235.858 118.365 235.858H73.9738C72.8232 235.858 72.583 234.234 73.6843 233.901L99.713 226.027C100.81 225.695 100.578 224.079 99.4319 224.07L46.7708 223.627C46.6209 223.626 46.5 223.504 46.5 223.354C46.5 223.221 46.5951 223.108 46.7257 223.085L100.432 213.607C101.533 213.413 101.533 211.833 100.432 211.638L68.6034 205.997C67.6011 205.819 67.4741 204.432 68.4274 204.075L85.2342 197.786C86.0975 197.463 86.1011 196.243 85.2397 195.915L79.7699 193.831C78.8989 193.5 78.9154 192.262 79.795 191.953L111.048 180.995C112.077 180.634 111.867 179.12 110.779 179.053L70.2359 176.545C69.274 176.485 68.9446 175.234 69.7527 174.708L75.0676 171.254C75.8312 170.757 75.5879 169.582 74.6901 169.429L56.7318 166.38C55.6152 166.19 55.6245 164.583 56.7433 164.406Z" fill="#21211E"/>
<path d="M50.1901 60.2373C66.5573 55.7358 117.788 41.9435 148 37.1768C265 21.1768 450.5 25.3188 450.5 25.3188L342.5 38.1768C342.5 38.1768 421.733 30.6308 467.342 37.4193C469.574 37.7515 469.4 40.6015 467.156 40.8383C452.407 42.395 429.955 45.192 437 47.1769C465.051 55.0795 546.23 62.896 580.709 65.9624C583.052 66.1707 583.184 69.6052 580.866 70.0032L554.357 74.555C552.115 74.94 552.153 78.1731 554.404 78.5048L580.487 82.3485C582.608 82.6612 582.817 85.6412 580.759 86.246L571.685 88.913C569.657 89.5091 569.82 92.434 571.902 92.8014L613.548 100.151C614.098 100.248 614.5 100.727 614.5 101.286C614.5 101.874 614.058 102.367 613.473 102.432L523.744 112.292C523.605 112.307 523.5 112.424 523.5 112.564C523.5 112.708 523.611 112.827 523.754 112.837L585.22 117.227C585.941 117.279 586.5 117.879 586.5 118.602C586.5 119.297 585.982 119.883 585.292 119.969L566.923 122.252C565.398 122.441 564.648 124.207 565.57 125.436L567.661 128.225C568.528 129.38 567.922 131.045 566.515 131.373L515.083 143.367C513.445 143.749 513.193 145.513 514.773 146.092C524.523 149.67 547.861 154.749 550.294 155.274C550.428 155.303 550.5 155.416 550.5 155.553C550.5 155.703 550.385 155.829 550.235 155.842L531.204 157.497C529.617 157.635 528.82 159.483 529.81 160.732L536.87 169.633C537.822 170.833 537.127 172.613 535.614 172.851L488.275 180.297C486.168 180.628 485.959 183.588 488.004 184.195C506.902 189.806 550.251 202.76 544 201.677C392.659 175.464 123.418 214.317 106.95 211.292C106.549 211.218 106.281 210.966 106.351 210.564C107.48 204.089 187.873 190.06 219.866 183.788C222.027 183.364 221.889 181.055 219.688 181.012C186.931 180.378 108.413 187.142 92.386 188.561C90.9908 188.684 89.9047 187.374 90.2824 186.025L90.6884 184.575C91.0739 183.198 89.9323 181.873 88.5137 182.051L46.5 187.319L66.4641 182.257C68.7465 181.679 68.3272 178.319 65.9726 178.319H41.5021C39.2953 178.319 38.7147 175.27 40.767 174.459L103.327 149.734C105.429 148.904 104.757 145.772 102.5 145.876L3.29315 150.486C3.1335 150.494 3 150.366 3 150.207C3 150.084 3.07998 149.975 3.1973 149.939L50.694 135.235C52.6931 134.616 52.5193 131.731 50.4603 131.357L41.0937 129.654C38.9321 129.261 38.893 126.176 41.0439 125.728L106.439 112.117C106.68 112.067 106.769 111.769 106.595 111.595C106.534 111.534 106.451 111.502 106.366 111.504L75.873 112.488C75.6264 112.496 75.3806 112.458 75.1478 112.377L65.8628 109.127C65.6231 109.043 65.3697 109.006 65.116 109.017L18.7878 111.013C16.5538 111.11 15.8696 108.025 17.9348 107.168L56.627 91.1057C58.7364 90.2301 57.9665 87.0723 55.6908 87.2657L0 92C45.4661 81.7386 80.8193 70.8633 92.6926 67.0743C94.3496 66.5455 94.5125 64.2949 92.9921 63.4502C92.6733 63.2731 92.3074 63.1839 91.9429 63.1973L51.9774 64.6594C51.6636 64.6709 51.3514 64.6083 51.0662 64.4767L49.9228 63.9489C48.2352 63.1701 48.398 60.7302 50.1901 60.2373Z" fill="url(#paint0_linear_31_2)"/>
<path d="M126.684 26.8765L136.474 18.7555C136.815 18.4724 137.24 18.3107 137.684 18.2959L271.5 13.8188L128.191 30.4026C126.214 30.6313 125.152 28.147 126.684 26.8765Z" fill="url(#paint1_linear_31_2)"/>
<path d="M64.9615 156.05L60.2595 152.994C59.7768 152.68 59.1822 152.589 58.628 152.745L11.5 166C11.1317 166.147 11.2761 166.699 11.6693 166.647L64.1337 159.71C65.9753 159.466 66.519 157.062 64.9615 156.05Z" fill="url(#paint2_linear_31_2)"/>
<path d="M125.008 234.185L133.195 224.536C133.396 224.3 133.577 224.137 133.869 224.035C146.821 219.532 280 212.677 280 212.677L126.852 237.453C125.018 237.75 123.806 235.602 125.008 234.185Z" fill="url(#paint3_linear_31_2)"/>
<path d="M563.633 43.5474C565.684 41.2189 566.952 36.8766 567.562 34.2843C567.829 33.152 567.019 32.0885 565.861 31.9872C553.597 30.9157 492.078 25.7513 472.221 28.1711C470.446 28.3874 470.396 30.1604 472.132 30.5902C488.131 34.5522 531.909 40.0676 562.124 44.0611C562.688 44.1355 563.257 43.974 563.633 43.5474Z" fill="url(#paint4_linear_31_2)"/>
<path d="M67.5 33.3188L36.731 42.6518C35.7482 42.9499 34.6993 42.4552 34.3043 41.5072L33.519 39.6224C33.0082 38.3965 33.8122 37.0223 35.1312 36.8669L69.5 32.8188L67.5 33.3188Z" fill="url(#paint5_linear_31_2)"/>
<path d="M421.014 211.204L312 217.319L439.883 223.651C442.092 223.761 442.818 220.733 440.8 219.829L421.944 211.376C421.652 211.245 421.333 211.186 421.014 211.204Z" fill="url(#paint6_linear_31_2)"/>
<path d="M156.043 153.819C154.884 152.502 154.305 150.817 154.305 148.763C157.149 148.763 159.335 148.42 160.862 147.736C162.442 147.051 163.232 145.971 163.232 144.497V104.918H161.494C160.125 104.918 158.755 105.339 157.386 106.182C156.069 107.024 154.911 108.578 153.91 110.843C152.962 113.055 152.304 116.294 151.935 120.56C151.303 120.507 150.513 120.454 149.565 120.402C148.617 120.349 147.695 120.27 146.8 120.165C145.957 120.007 145.299 119.849 144.825 119.691C144.825 118.585 144.878 117.031 144.983 115.03C145.088 113.028 145.246 110.895 145.457 108.631C145.668 106.366 145.931 104.259 146.247 102.311C146.616 100.309 147.037 98.7821 147.511 97.7288C148.459 97.7288 149.539 97.8078 150.75 97.9658C151.961 98.1238 153.041 98.3608 153.989 98.6768H184.799C185.8 98.3608 186.879 98.1238 188.038 97.9658C189.197 97.8078 190.276 97.7288 191.277 97.7288C191.751 98.7821 192.146 100.309 192.462 102.311C192.831 104.259 193.12 106.366 193.331 108.631C193.542 110.895 193.7 113.028 193.805 115.03C193.91 117.031 193.963 118.585 193.963 119.691C193.278 119.954 192.172 120.165 190.645 120.323C189.17 120.481 187.906 120.56 186.853 120.56C186.537 116.294 186.01 113.055 185.273 110.843C184.536 108.578 183.561 107.024 182.35 106.182C181.139 105.339 179.585 104.918 177.689 104.918H176.346V144.497C176.346 147.341 179.137 148.763 184.72 148.763C184.72 150.817 184.114 152.502 182.903 153.819H156.043ZM191.336 153.819C190.125 152.502 189.519 150.817 189.519 148.763C190.941 148.763 192.258 148.341 193.469 147.499C194.733 146.656 195.655 145.366 196.234 143.628L209.19 105.392C207.083 104.707 204.424 104.365 201.211 104.365C201.211 102.1 201.843 100.204 203.107 98.6768H224.753L239.447 143.391C240.026 145.129 240.948 146.472 242.212 147.42C243.476 148.315 244.793 148.763 246.162 148.763C246.162 150.817 245.556 152.502 244.345 153.819H222.936C221.725 152.502 221.119 150.817 221.119 148.763C222.488 148.763 223.568 148.473 224.358 147.894C225.201 147.262 225.622 146.287 225.622 144.971C225.622 144.497 225.569 143.944 225.464 143.312C225.411 142.68 225.28 141.995 225.069 141.258L224.595 139.599H206.899L206.425 141.258C206.214 141.942 206.03 142.574 205.872 143.154C205.767 143.733 205.714 144.26 205.714 144.734C205.714 146.156 206.162 147.183 207.057 147.815C207.952 148.447 209.19 148.763 210.77 148.763C210.77 150.817 210.164 152.502 208.953 153.819H191.336ZM208.637 133.437H222.857L217.248 113.845C216.774 112.265 216.168 110.922 215.431 109.816L208.637 133.437ZM269.363 154.451C266.888 154.451 264.018 154.345 260.752 154.135C257.487 153.924 253.432 153.819 248.586 153.819C247.428 152.397 246.848 150.738 246.848 148.842C248.639 148.842 249.903 148.552 250.64 147.973C251.378 147.341 251.746 146.287 251.746 144.813V107.683C251.746 106.208 251.378 105.181 250.64 104.602C249.903 103.97 248.639 103.654 246.848 103.654C246.848 101.758 247.428 100.099 248.586 98.6768C252.326 98.6768 255.301 98.6504 257.513 98.5978C259.725 98.4924 261.595 98.4134 263.122 98.3608C264.702 98.3081 266.282 98.2818 267.862 98.2818C272.444 98.2818 276.21 98.7031 279.159 99.5458C282.109 100.336 284.4 101.389 286.032 102.706C287.718 103.97 288.876 105.392 289.508 106.972C290.193 108.499 290.535 110.026 290.535 111.554C290.535 114.503 289.772 117.031 288.244 119.138C286.717 121.244 284.136 123.061 280.502 124.589C285.032 125.537 288.323 127.011 290.377 129.013C292.484 131.014 293.537 134.121 293.537 138.335C293.537 140.389 293.195 142.39 292.51 144.339C291.826 146.235 290.588 147.946 288.797 149.474C287.059 151.001 284.61 152.212 281.45 153.108C278.29 154.003 274.261 154.451 269.363 154.451ZM267.151 122.693C270.996 122.693 273.708 121.85 275.288 120.165C276.921 118.479 277.737 116.215 277.737 113.371C277.737 110.527 276.947 108.262 275.367 106.577C273.84 104.891 271.391 104.049 268.02 104.049C267.494 104.049 266.914 104.075 266.282 104.128C265.703 104.18 265.203 104.259 264.781 104.365V122.535C265.15 122.587 265.545 122.64 265.966 122.693C266.388 122.693 266.783 122.693 267.151 122.693ZM268.099 148.684C275.473 148.684 279.159 145.497 279.159 139.125C279.159 135.543 278.238 132.857 276.394 131.067C274.604 129.276 271.602 128.381 267.388 128.381C266.967 128.381 266.493 128.407 265.966 128.46C265.492 128.46 265.097 128.46 264.781 128.46V148.447C265.15 148.499 265.624 148.552 266.203 148.605C266.783 148.657 267.415 148.684 268.099 148.684ZM298.658 153.819C297.446 152.502 296.841 150.817 296.841 148.763C298.631 148.763 299.895 148.473 300.633 147.894C301.37 147.314 301.739 146.287 301.739 144.813V107.683C301.739 106.208 301.37 105.181 300.633 104.602C299.895 103.97 298.631 103.654 296.841 103.654C296.841 102.758 296.999 101.863 297.315 100.968C297.631 100.072 298.078 99.3088 298.658 98.6768H318.961C319.54 99.3088 319.961 100.072 320.225 100.968C320.541 101.863 320.699 102.758 320.699 103.654C318.592 103.654 317.065 103.97 316.117 104.602C315.169 105.181 314.695 106.208 314.695 107.683V147.104H319.593C322.542 147.104 324.833 145.813 326.466 143.233C328.151 140.599 328.994 137.071 328.994 132.647H334.524C335.208 133.121 335.761 134.016 336.183 135.333C336.604 136.597 336.92 137.992 337.131 139.52C337.341 141.047 337.447 142.443 337.447 143.707C337.447 146.867 336.894 149.342 335.788 151.133C334.682 152.923 332.759 153.819 330.021 153.819H298.658ZM381.756 155.083C381.44 154.977 381.045 154.846 380.571 154.688C380.097 154.53 379.386 154.24 378.438 153.819H341.861C341.334 153.134 340.886 152.37 340.518 151.528C340.202 150.632 340.044 149.737 340.044 148.842C341.782 148.842 343.072 148.526 343.915 147.894C344.81 147.262 345.258 146.208 345.258 144.734V107.683C345.258 106.208 344.836 105.181 343.994 104.602C343.151 103.97 341.861 103.654 340.123 103.654C340.123 102.758 340.281 101.889 340.597 101.047C340.965 100.151 341.413 99.3614 341.94 98.6768H372.592C373.54 98.2554 374.593 97.9394 375.752 97.7288C376.91 97.4654 377.99 97.3338 378.991 97.3338C379.465 98.1764 379.991 99.4141 380.571 101.047C381.203 102.627 381.756 104.207 382.23 105.787C382.704 107.367 382.941 108.604 382.941 109.5C382.519 109.921 381.835 110.342 380.887 110.764C379.991 111.185 379.07 111.554 378.122 111.87C377.174 112.186 376.384 112.423 375.752 112.581C375.172 110.843 374.145 109.21 372.671 107.683C371.249 106.155 369.484 105.392 367.378 105.392H358.451V122.061H364.139C365.613 122.061 366.825 121.639 367.773 120.797C368.773 119.901 369.274 118.4 369.274 116.294C371.644 116.294 373.777 116.847 375.673 117.953V132.647C373.882 133.753 371.775 134.306 369.353 134.306C369.353 132.199 368.852 130.672 367.852 129.724C366.904 128.776 365.692 128.302 364.218 128.302H358.451V146.867H368.01C370.327 146.867 372.276 145.919 373.856 144.023C375.488 142.074 376.489 139.783 376.858 137.15H385.311C385.311 137.94 385.179 139.177 384.916 140.863C384.705 142.495 384.415 144.286 384.047 146.235C383.731 148.131 383.362 149.895 382.941 151.528C382.519 153.16 382.124 154.345 381.756 155.083ZM390.31 153.819C389.099 152.502 388.493 150.817 388.493 148.763C390.284 148.763 391.548 148.473 392.285 147.894C393.022 147.314 393.391 146.287 393.391 144.813V107.683C393.391 106.208 393.022 105.181 392.285 104.602C391.548 103.97 390.284 103.654 388.493 103.654C388.493 102.758 388.651 101.863 388.967 100.968C389.283 100.072 389.731 99.3088 390.31 98.6768H410.613C411.192 99.3088 411.614 100.072 411.877 100.968C412.193 101.863 412.351 102.758 412.351 103.654C410.244 103.654 408.717 103.97 407.769 104.602C406.821 105.181 406.347 106.208 406.347 107.683V147.104H411.245C414.194 147.104 416.485 145.813 418.118 143.233C419.803 140.599 420.646 137.071 420.646 132.647H426.176C426.861 133.121 427.414 134.016 427.835 135.333C428.256 136.597 428.572 137.992 428.783 139.52C428.994 141.047 429.099 142.443 429.099 143.707C429.099 146.867 428.546 149.342 427.44 151.133C426.334 152.923 424.412 153.819 421.673 153.819H390.31ZM437.869 153.819C436.71 152.502 436.131 150.817 436.131 148.763C437.869 148.763 439.501 148.473 441.029 147.894C442.609 147.314 443.399 146.287 443.399 144.813V134.385L427.678 107.13C427.098 106.076 426.229 105.234 425.071 104.602C423.965 103.97 422.885 103.654 421.832 103.654C421.832 101.705 422.464 100.046 423.728 98.6768H445.058C446.269 99.9934 446.875 101.652 446.875 103.654C443.715 103.654 442.135 104.681 442.135 106.735C442.135 107.683 442.556 108.999 443.399 110.685L450.983 124.984L459.673 108.631C459.936 108.104 460.068 107.604 460.068 107.13C460.068 106.129 459.594 105.313 458.646 104.681C457.698 103.996 456.618 103.654 455.407 103.654C455.407 101.652 456.012 99.9934 457.224 98.6768H473.735C474.999 100.046 475.631 101.705 475.631 103.654C474.314 103.654 473.313 103.785 472.629 104.049C471.944 104.259 471.391 104.654 470.97 105.234C470.601 105.76 470.127 106.55 469.548 107.604L455.802 132.568V144.813C455.802 146.287 456.592 147.314 458.172 147.894C459.804 148.473 461.542 148.763 463.386 148.763C463.386 150.817 462.806 152.502 461.648 153.819H437.869Z" fill="#21211E"/>
<defs>
<linearGradient id="paint0_linear_31_2" x1="278.5" y1="-4.68122" x2="292.5" y2="188.819" gradientUnits="userSpaceOnUse">
<stop stop-color="#FFC655"/>
<stop offset="1" stop-color="#D97706"/>
</linearGradient>
<linearGradient id="paint1_linear_31_2" x1="278.5" y1="-4.68122" x2="292.5" y2="188.819" gradientUnits="userSpaceOnUse">
<stop stop-color="#FFC655"/>
<stop offset="1" stop-color="#D97706"/>
</linearGradient>
<linearGradient id="paint2_linear_31_2" x1="278.5" y1="-4.68122" x2="292.5" y2="188.819" gradientUnits="userSpaceOnUse">
<stop stop-color="#FFC655"/>
<stop offset="1" stop-color="#D97706"/>
</linearGradient>
<linearGradient id="paint3_linear_31_2" x1="278.5" y1="-4.68122" x2="292.5" y2="188.819" gradientUnits="userSpaceOnUse">
<stop stop-color="#FFC655"/>
<stop offset="1" stop-color="#D97706"/>
</linearGradient>
<linearGradient id="paint4_linear_31_2" x1="278.5" y1="-4.68122" x2="292.5" y2="188.819" gradientUnits="userSpaceOnUse">
<stop stop-color="#FFC655"/>
<stop offset="1" stop-color="#D97706"/>
</linearGradient>
<linearGradient id="paint5_linear_31_2" x1="278.5" y1="-4.68122" x2="292.5" y2="188.819" gradientUnits="userSpaceOnUse">
<stop stop-color="#FFC655"/>
<stop offset="1" stop-color="#D97706"/>
</linearGradient>
<linearGradient id="paint6_linear_31_2" x1="278.5" y1="-4.68122" x2="292.5" y2="188.819" gradientUnits="userSpaceOnUse">
<stop stop-color="#FFC655"/>
<stop offset="1" stop-color="#D97706"/>
</linearGradient>
</defs>
</svg>
