<svg width="81" height="93" viewBox="0 0 81 93" fill="none" xmlns="http://www.w3.org/2000/svg">
<path d="M33.02 75.8667V12.8174C33.02 12.3698 32.9997 12.0239 32.959 11.7798C32.9183 11.5356 32.7759 11.2915 32.5317 11.0474C32.3283 10.8032 32.0027 10.6812 31.5552 10.6812C29.6427 10.6812 26.8554 10.6812 23.1933 10.6812C19.5719 10.6405 16.9678 10.6201 15.3808 10.6201C15.0146 11.4339 14.4043 13.4684 13.5498 16.7236C12.736 19.9382 11.9018 22.7661 11.0473 25.2075C10.1928 27.6489 9.41974 28.8696 8.728 28.8696C7.18178 28.8696 5.79832 28.6662 4.57761 28.2593C3.3976 27.8524 2.48207 27.3641 1.83103 26.7944C1.22068 26.1841 0.752744 25.6348 0.427223 25.1465C0.142392 24.6175 -2.28882e-05 24.2106 -2.28882e-05 23.9258C-2.28882e-05 22.5423 0.752744 18.3512 2.25828 11.3525C3.76381 4.35384 4.80141 0.569661 5.37107 0C5.49314 0 5.61521 0.0203451 5.73728 0.0610352C5.85935 0.0610352 5.98142 0.0610352 6.10349 0.0610352C18.1885 1.07829 29.5206 1.58691 40.1001 1.58691C50.6388 1.58691 61.9507 1.07829 74.0356 0.0610352C74.1577 0.0610352 74.2798 0.0610352 74.4018 0.0610352C74.5239 0.0203451 74.646 0 74.768 0C75.3377 0.569661 76.3753 4.35384 77.8808 11.3525C79.3864 18.3512 80.1391 22.5423 80.1391 23.9258C80.1391 24.2106 79.9764 24.6175 79.6509 25.1465C79.366 25.6348 78.8981 26.1841 78.247 26.7944C77.6367 27.3641 76.7212 27.8524 75.5005 28.2593C74.3205 28.6662 72.9573 28.8696 71.4111 28.8696C70.7194 28.8696 69.9463 27.6489 69.0918 25.2075C68.2373 22.7661 67.3828 19.9382 66.5283 16.7236C65.7145 13.4684 65.1245 11.4339 64.7583 10.6201C63.1714 10.6201 60.5469 10.6405 56.8847 10.6812C53.2633 10.6812 50.4964 10.6812 48.584 10.6812C47.9329 10.6812 47.526 10.8643 47.3633 11.2305C47.2005 11.5967 47.1191 12.1257 47.1191 12.8174V75.7446C47.1191 76.355 47.1395 76.8433 47.1802 77.2095C47.2615 77.535 47.4039 77.9215 47.6074 78.3691C47.8515 78.8167 48.2584 79.1626 48.8281 79.4067C49.3978 79.6102 50.1302 79.7119 51.0254 79.7119C52.8971 79.7119 54.5044 79.9561 55.8471 80.4443C57.1899 80.9326 57.8613 81.665 57.8613 82.6416C57.8613 88.0534 57.1899 91.3696 55.8471 92.5903C49.7436 92.1427 44.515 91.9189 40.1611 91.9189C35.8886 91.9189 30.6193 92.1427 24.353 92.5903C23.0102 91.3696 22.3388 88.0534 22.3388 82.6416C22.3388 81.665 23.0102 80.9326 24.353 80.4443C25.6958 79.9561 27.303 79.7119 29.1748 79.7119C30.7617 79.7119 31.7993 79.3864 32.2876 78.7354C32.7759 78.0436 33.02 77.0874 33.02 75.8667Z" fill="#21211E"/>
</svg>
